<svg width="120" height="120" viewBox="0 0 120 120" xmlns="http://www.w3.org/2000/svg">
  <defs>
    <linearGradient id="starGradient" x1="0%" y1="0%" x2="100%" y2="100%">
      <stop offset="0%" style="stop-color:#FFD700;stop-opacity:1" />
      <stop offset="100%" style="stop-color:#FFA500;stop-opacity:1" />
    </linearGradient>
    <linearGradient id="bgGradient" x1="0%" y1="0%" x2="100%" y2="100%">
      <stop offset="0%" style="stop-color:#7B68EE;stop-opacity:1" />
      <stop offset="100%" style="stop-color:#5A4FCF;stop-opacity:1" />
    </linearGradient>
  </defs>
  
  <!-- Фон -->
  <circle cx="60" cy="60" r="56" fill="url(#bgGradient)" stroke="#FFFFFF" stroke-width="8"/>
  
  <!-- Главная звезда -->
  <g transform="translate(60,60)">
    <polygon points="0,-20 6,-6 20,-6 10,2 16,16 0,8 -16,16 -10,2 -20,-6 -6,-6" 
             fill="url(#starGradient)" 
             stroke="#FFFFFF" 
             stroke-width="2"/>
  </g>
  
  <!-- Малые звёзды -->
  <g transform="translate(35,35)">
    <polygon points="0,-8 2.4,-2.4 8,-2.4 4,0.8 6.4,6.4 0,3.2 -6.4,6.4 -4,0.8 -8,-2.4 -2.4,-2.4" 
             fill="#FFFFFF" 
             opacity="0.8"/>
  </g>
  
  <g transform="translate(85,35)">
    <polygon points="0,-6 1.8,-1.8 6,-1.8 3,0.6 4.8,4.8 0,2.4 -4.8,4.8 -3,0.6 -6,-1.8 -1.8,-1.8" 
             fill="#FFFFFF" 
             opacity="0.6"/>
  </g>
  
  <g transform="translate(85,85)">
    <polygon points="0,-8 2.4,-2.4 8,-2.4 4,0.8 6.4,6.4 0,3.2 -6.4,6.4 -4,0.8 -8,-2.4 -2.4,-2.4" 
             fill="#FFFFFF" 
             opacity="0.8"/>
  </g>
  
  <!-- Блики -->
  <ellipse cx="45" cy="45" rx="8" ry="12" fill="#FFFFFF" opacity="0.3" transform="rotate(-30 45 45)"/>
</svg>